# Made in Blockbench 4.11.2
mtllib Wheat Field.mtl

o cuboid
v 0.5625 0.125 0.5625
v 0.5625 0.125 0.375
v 0.5625 0 0.5625
v 0.5625 0 0.375
v -0.5625 0.125 0.5625
v -0.5625 0.125 0.375
v -0.5625 0 0.5625
v -0.5625 0 0.375
vt 0.046875 0.65625
vt 0 0.65625
vt 0 0.625
vt 0.046875 0.625
vt 0.109375 0.625
vt 0.109375 0.65625
vt 0.0625 0.65625
vt 0.0625 0.625
vt 0 0.890625
vt 0.28125 0.890625
vt 0.28125 0.9375
vt 0 0.9375
vt 0.578125 0.96875
vt 0.578125 1
vt 0.296875 1
vt 0.296875 0.96875
vt 0.578125 0.953125
vt 0.296875 0.953125
vt 0.296875 0.921875
vt 0.578125 0.921875
vn 1 0 0
vn -1 0 0
vn 0 1 0
vn 0 0 1
vn 0 0 -1
usemtl m_53d5bce2-0492-9f94-ebd3-ee858dfb9853
f 2/1/1 1/2/1 3/3/1 4/4/1
f 7/5/2 5/6/2 6/7/2 8/8/2
f 5/9/3 1/10/3 2/11/3 6/12/3
f 3/13/4 1/14/4 5/15/4 7/16/4
f 6/17/5 2/18/5 4/19/5 8/20/5
o cuboid
v 0.5625 0.125 0.25
v 0.5625 0.125 0.0625
v 0.5625 0 0.25
v 0.5625 0 0.0625
v -0.5625 0.125 0.25
v -0.5625 0.125 0.0625
v -0.5625 0 0.25
v -0.5625 0 0.0625
vt 0.171875 0.65625
vt 0.125 0.65625
vt 0.125 0.625
vt 0.171875 0.625
vt 0.234375 0.625
vt 0.234375 0.65625
vt 0.1875 0.65625
vt 0.1875 0.625
vt 0 0.828125
vt 0.28125 0.828125
vt 0.28125 0.875
vt 0 0.875
vt 0.578125 0.875
vt 0.578125 0.90625
vt 0.296875 0.90625
vt 0.296875 0.875
vt 0.578125 0.859375
vt 0.296875 0.859375
vt 0.296875 0.828125
vt 0.578125 0.828125
vn 1 0 0
vn -1 0 0
vn 0 1 0
vn 0 0 1
vn 0 0 -1
usemtl m_53d5bce2-0492-9f94-ebd3-ee858dfb9853
f 10/21/6 9/22/6 11/23/6 12/24/6
f 15/25/7 13/26/7 14/27/7 16/28/7
f 13/29/8 9/30/8 10/31/8 14/32/8
f 11/33/9 9/34/9 13/35/9 15/36/9
f 14/37/10 10/38/10 12/39/10 16/40/10
o cuboid
v 0.5625 0.125 -0.0625
v 0.5625 0.125 -0.25
v 0.5625 0 -0.0625
v 0.5625 0 -0.25
v -0.5625 0.125 -0.0625
v -0.5625 0.125 -0.25
v -0.5625 0 -0.0625
v -0.5625 0 -0.25
vt 0.40625 0.71875
vt 0.359375 0.71875
vt 0.359375 0.6875
vt 0.40625 0.6875
vt 0.40625 0.640625
vt 0.40625 0.671875
vt 0.359375 0.671875
vt 0.359375 0.640625
vt 0 0.765625
vt 0.28125 0.765625
vt 0.28125 0.8125
vt 0 0.8125
vt 0.578125 0.78125
vt 0.578125 0.8125
vt 0.296875 0.8125
vt 0.296875 0.78125
vt 0.578125 0.765625
vt 0.296875 0.765625
vt 0.296875 0.734375
vt 0.578125 0.734375
vn 1 0 0
vn -1 0 0
vn 0 1 0
vn 0 0 1
vn 0 0 -1
usemtl m_53d5bce2-0492-9f94-ebd3-ee858dfb9853
f 18/41/11 17/42/11 19/43/11 20/44/11
f 23/45/12 21/46/12 22/47/12 24/48/12
f 21/49/13 17/50/13 18/51/13 22/52/13
f 19/53/14 17/54/14 21/55/14 23/56/14
f 22/57/15 18/58/15 20/59/15 24/60/15
o cuboid
v 0.5625 0.125 -0.375
v 0.5625 0.125 -0.5625
v 0.5625 0 -0.375
v 0.5625 0 -0.5625
v -0.5625 0.125 -0.375
v -0.5625 0.125 -0.5625
v -0.5625 0 -0.375
v -0.5625 0 -0.5625
vt 0.34375 0.71875
vt 0.296875 0.71875
vt 0.296875 0.6875
vt 0.34375 0.6875
vt 0.34375 0.640625
vt 0.34375 0.671875
vt 0.296875 0.671875
vt 0.296875 0.640625
vt 0 0.953125
vt 0.28125 0.953125
vt 0.28125 1
vt 0 1
vt 0.28125 0.71875
vt 0.28125 0.75
vt 0 0.75
vt 0 0.71875
vt 0.28125 0.703125
vt 0 0.703125
vt 0 0.671875
vt 0.28125 0.671875
vn 1 0 0
vn -1 0 0
vn 0 1 0
vn 0 0 1
vn 0 0 -1
usemtl m_53d5bce2-0492-9f94-ebd3-ee858dfb9853
f 26/61/16 25/62/16 27/63/16 28/64/16
f 31/65/17 29/66/17 30/67/17 32/68/17
f 29/69/18 25/70/18 26/71/18 30/72/18
f 27/73/19 25/74/19 29/75/19 31/76/19
f 30/77/20 26/78/20 28/79/20 32/80/20