# Made in Blockbench 4.11.0
mtllib Farm House.mtl

o Roof
v 0.2430679560328757 0.3167512177912835 0.21875
v 0.2430679560328757 0.3167512177912835 -0.21875
v 0.19887378220871646 0.27255704396712427 0.21875
v 0.19887378220871646 0.27255704396712427 -0.21875
v -0.15467960838455724 0.7144987822087165 0.21875
v -0.15467960838455724 0.7144987822087165 -0.21875
v -0.1988737822087165 0.6703046083845573 0.21875
v -0.1988737822087165 0.6703046083845573 -0.21875
v 0.19887378220871646 0.27255704396712427 0.140625
v -0.1988737822087165 0.6703046083845573 0.140625
v -0.15467960838455724 0.7144987822087165 0.140625
v 0.2430679560328757 0.3167512177912835 0.140625
v 0.14363106492851743 0.3277997612473233 0.140625
v 0.14363106492851743 0.3277997612473233 0.21875
v 0.18782523875267668 0.37199393507148254 0.21875
v 0.18782523875267668 0.37199393507148254 0.140625
v 0.18782523875267668 0.37199393507148254 -0.21875
v 0.14363106492851743 0.3277997612473233 -0.21875
v -0.14363106492851746 0.6150618911043583 0.21875
v -0.14363106492851746 0.6150618911043583 0.140625
v -0.14363106492851746 0.6150618911043583 -0.21875
v -0.09943689110435823 0.6592560649285175 -0.21875
v -0.09943689110435823 0.6592560649285175 0.140625
v -0.09943689110435823 0.6592560649285175 0.21875
v 0.14363106492851743 0.3277997612473233 -0.140625
v 0.19887378220871646 0.27255704396712427 -0.140625
v 0.2430679560328757 0.3167512177912835 -0.140625
v 0.18782523875267668 0.37199393507148254 -0.140625
v -0.09943689110435823 0.6592560649285175 -0.140625
v -0.15467960838455724 0.7144987822087165 -0.140625
v -0.1988737822087165 0.6703046083845573 -0.140625
v -0.14363106492851746 0.6150618911043583 -0.140625
vt 0.5 0.46875
vt 0.53125 0.46875
vt 0.53125 0.5
vt 0.5 0.5
vt 0.71875 0.4375
vt 0.6875 0.4375
vt 0.6875 0.40625
vt 0.71875 0.40625
vt 0.28125 0.8125
vt 0.25 0.8125
vt 0.25 0.78125
vt 0.28125 0.78125
vt 0.28125 0.75
vt 0.25 0.75
vt 0.25 0.71875
vt 0.28125 0.71875
vt 0.71875 0.625
vt 0.6875 0.625
vt 0.6875 0.59375
vt 0.71875 0.59375
vt 0.5 0.53125
vt 0.53125 0.53125
vt 0.53125 0.5625
vt 0.5 0.5625
vt 0.28125 0.53125
vt 0.28125 0.5625
vt 0.25 0.5625
vt 0.25 0.53125
vt 0.5 0.40625
vt 0.53125 0.40625
vt 0.53125 0.4375
vt 0.5 0.4375
vt 0.25 1
vt 0.25 0.96875
vt 0.28125 0.96875
vt 0.28125 1
vt 0.71875 0.5
vt 0.6875 0.5
vt 0.6875 0.46875
vt 0.71875 0.46875
vt 0 0.71875
vt 0.03125 0.71875
vt 0.03125 0.75
vt 0 0.75
vt 0.4375 0.59375
vt 0.46875 0.59375
vt 0.46875 0.625
vt 0.4375 0.625
vt 0 0.78125
vt 0.03125 0.78125
vt 0.03125 0.8125
vt 0 0.8125
vt 0 1
vt 0 0.96875
vt 0.03125 0.96875
vt 0.03125 1
vt 0.78125 0.5625
vt 0.75 0.5625
vt 0.75 0.53125
vt 0.78125 0.53125
vt 0.03125 0.53125
vt 0.03125 0.5625
vt 0 0.5625
vt 0 0.53125
vt 0.25 0.75
vt 0.03125 0.75
vt 0.03125 0.71875
vt 0.25 0.71875
vt 0.25 0.53125
vt 0.25 0.5625
vt 0.03125 0.5625
vt 0.03125 0.53125
vt 0.53125 0.53125
vt 0.75 0.53125
vt 0.75 0.5625
vt 0.53125 0.5625
vt 0.03125 1
vt 0.03125 0.96875
vt 0.25 0.96875
vt 0.25 1
vt 0.25 0.8125
vt 0.03125 0.8125
vt 0.03125 0.78125
vt 0.25 0.78125
vt 0.6875 0.625
vt 0.46875 0.625
vt 0.46875 0.59375
vt 0.6875 0.59375
vt 0.25 0.71875
vt 0.25 0.5625
vt 0.28125 0.5625
vt 0.28125 0.71875
vt 0.53125 0.46875
vt 0.6875 0.46875
vt 0.6875 0.5
vt 0.53125 0.5
vt 0.28125 0.8125
vt 0.28125 0.96875
vt 0.25 0.96875
vt 0.25 0.8125
vt 0.25 0.8125
vt 0.25 0.96875
vt 0.03125 0.96875
vt 0.03125 0.8125
vt 0.03125 0.8125
vt 0.03125 0.96875
vt 0 0.96875
vt 0 0.8125
vt 0.6875 0.4375
vt 0.53125 0.4375
vt 0.53125 0.40625
vt 0.6875 0.40625
vt 0 0.71875
vt 0 0.5625
vt 0.03125 0.5625
vt 0.03125 0.71875
vn 0.7071067811865475 -0.7071067811865476 0
vn -0.7071067811865475 0.7071067811865476 0
vn 0.7071067811865476 0.7071067811865475 0
vn -0.7071067811865476 -0.7071067811865475 0
vn 0 0 1
vn 0 0 -1
vn -0.7071067811865476 -0.7071067811865475 0
vn -0.7071067811865475 0.7071067811865476 0
vn 0.7071067811865476 0.7071067811865475 0
vn 0.7071067811865475 -0.7071067811865476 0
vn -0.7071067811865476 -0.7071067811865475 0
vn 0 0 1
vn 0.7071067811865476 0.7071067811865475 0
vn 0.7071067811865476 0.7071067811865475 0
vn 0 0 -1
vn -0.7071067811865476 -0.7071067811865475 0
vn -0.7071067811865476 -0.7071067811865475 0
vn -0.7071067811865476 -0.7071067811865475 0
vn 0 0 -1
vn 0.7071067811865476 0.7071067811865475 0
vn 0.7071067811865476 0.7071067811865475 0
vn 0 0 1
vn -0.7071067811865476 -0.7071067811865475 0
vn 0.7071067811865475 -0.7071067811865476 0
vn 0.7071067811865476 0.7071067811865475 0
vn 0.7071067811865476 0.7071067811865475 0
vn 0.7071067811865476 0.7071067811865475 0
vn -0.7071067811865475 0.7071067811865476 0
vn -0.7071067811865476 -0.7071067811865475 0
usemtl m_0036f677-9bcf-6470-9a02-1fe186323e5b
f 3/1/1 9/2/1 12/3/1 1/4/1
f 5/5/2 11/6/2 10/7/2 7/8/2
f 12/9/3 16/10/3 15/11/3 1/12/3
f 3/13/4 14/14/4 13/15/4 9/16/4
f 1/17/5 15/18/5 14/19/5 3/20/5
f 4/21/6 18/22/6 17/23/6 2/24/6
f 4/25/7 26/26/7 25/27/7 18/28/7
f 8/29/8 31/30/8 30/31/8 6/32/8
f 17/33/9 28/34/9 27/35/9 2/36/9
f 2/37/10 27/38/10 26/39/10 4/40/10
f 10/41/11 20/42/11 19/43/11 7/44/11
f 7/45/12 19/46/12 24/47/12 5/48/12
f 5/49/13 24/50/13 23/51/13 11/52/13
f 6/53/14 30/54/14 29/55/14 22/56/14
f 6/57/15 22/58/15 21/59/15 8/60/15
f 21/61/16 32/62/16 31/63/16 8/64/16
f 14/65/17 19/66/17 20/67/17 13/68/17
f 18/69/18 25/70/18 32/71/18 21/72/18
f 18/73/19 21/74/19 22/75/19 17/76/19
f 22/77/20 29/78/20 28/79/20 17/80/20
f 16/81/21 23/82/21 24/83/21 15/84/21
f 15/85/22 24/86/22 19/87/22 14/88/22
f 13/89/23 25/90/23 26/91/23 9/92/23
f 9/93/24 26/94/24 27/95/24 12/96/24
f 12/97/25 27/98/25 28/99/25 16/100/25
f 16/101/26 28/102/26 29/103/26 23/104/26
f 23/105/27 29/106/27 30/107/27 11/108/27
f 11/109/28 30/110/28 31/111/28 10/112/28
f 10/113/29 31/114/29 32/115/29 20/116/29
o Body
v 0.15625 0.3125 0.15625
v 0.15625 0.3125 -0.15625
v 0.15625 0 0.15625
v 0.15625 0 -0.15625
v -0.15625 0.625 0.15625
v -0.15625 0.625 -0.15625
v -0.15625 0 0.15625
v -0.15625 0 -0.15625
vt 0.65625 1
vt 0.5 1
vt 0.5 0.84375
vt 0.65625 0.84375
vt 0.46875 0.6875
vt 0.46875 1
vt 0.3125 1
vt 0.3125 0.6875
vt 0.65625 0.65625
vt 0.65625 0.8125
vt 0.5 0.8125
vt 0.5 0.65625
vt 0.46875 0.34375
vt 0.46875 0.5
vt 0.3125 0.65625
vt 0.3125 0.34375
vt 0.15625 0.5
vt 0 0.34375
vt 0 0.1875
vt 0.15625 0.1875
vn 1 0 0
vn -1 0 0
vn 0 -1 0
vn 0 0 1
vn 0 0 -1
usemtl m_0036f677-9bcf-6470-9a02-1fe186323e5b
f 34/117/30 33/118/30 35/119/30 36/120/30
f 39/121/31 37/122/31 38/123/31 40/124/31
f 36/125/32 35/126/32 39/127/32 40/128/32
f 35/129/33 33/130/33 37/131/33 39/132/33
f 38/133/34 34/134/34 36/135/34 40/136/34