# Made in Blockbench 4.11.2
mtllib FamilyHouse.mtl

o cuboid
v 1.2 3.5999999999999996 3.078125
v 1.2 3.5999999999999996 0.078125
v 1.2 0 3.078125
v 1.2 0 0.078125
v -1.2 3.5999999999999996 3.078125
v -1.2 3.5999999999999996 0.078125
v -1.2 0 3.078125
v -1.2 0 0.078125
v 0 4.8 3.078125
v 0 0 0.078125
v 0 0 3.078125
vt 0.3359375 0.7109375
vt 0.2578125 0.7109375
vt 0.2578125 0.6171875
vt 0.3359375 0.6171875
vt 0.078125 0.6015625
vt 0.078125 0.6953125
vt 0 0.6953125
vt 0 0.6015625
vt 0.4140625 0.8125
vt 0.3828125 0.8125
vt 0.3828125 0.734375
vt 0.4140625 0.734375
vt 0.3515625 0.734375
vt 0.3828125 0.734375
vt 0.3828125 0.8125
vt 0.3515625 0.8125
vt 0.15625 0.765625
vt 0.09375 0.765625
vt 0.09375 0.671875
vt 0.15625 0.671875
vt 0.15625 0.765625
vt 0.125 0.796875
vt 0.09375 0.765625
vn 1 0 0
vn -1 0 0
vn 0 -1 0
vn 0 -1 0
vn 0 0 1
vn 0 0 1
usemtl m_edf4c41d-4f33-5fd7-927c-71d8294079b2
f 2/1/1 1/2/1 3/3/1 4/4/1
f 7/5/2 5/6/2 6/7/2 8/8/2
f 3/9/3 11/10/3 10/11/3 4/12/3
f 8/13/4 10/14/4 11/15/4 7/16/4
f 1/17/5 5/18/5 7/19/5 3/20/5
f 1/21/6 9/22/6 5/23/6
o cuboid
v 1.5 6 0.078125
v 1.5 6 -2.921875
v 1.5 0 0.078125
v 1.5 0 -2.921875
v -1.5 6 0.078125
v -1.5 6 -2.921875
v -1.5 0 0.078125
v -1.5 0 -2.921875
v 0 7.5 0.078125
v 0 7.5 -2.921875
v 0 0 -2.921875
v 0 0 0.078125
vt 0.25 1
vt 0.171875 1
vt 0.171875 0.84375
vt 0.25 0.84375
vt 0.25 0.6796875
vt 0.25 0.8359375
vt 0.171875 0.8359375
vt 0.171875 0.6796875
vt 0.421875 0.7109375
vt 0.3828125 0.7109375
vt 0.3828125 0.6328125
vt 0.421875 0.6328125
vt 0 0.8046875
vt 0.078125 0.8046875
vt 0.078125 0.9609375
vt 0 0.9609375
vt 0.34375 0.6328125
vt 0.3828125 0.6328125
vt 0.3828125 0.7109375
vt 0.34375 0.7109375
vt 0.1640625 0.9609375
vt 0.0859375 0.9609375
vt 0.0859375 0.8046875
vt 0.1640625 0.8046875
vt 0.078125 0.9609375
vt 0.0390625 1
vt 0 0.9609375
vt 0.125 1
vt 0.0859375 0.9609375
vt 0.1640625 0.9609375
vn 1 0 0
vn -1 0 0
vn 0 -1 0
vn 0 0 -1
vn 0 -1 0
vn 0 0 1
vn 0 0 -1
vn 0 0 1
usemtl m_edf4c41d-4f33-5fd7-927c-71d8294079b2
f 13/24/7 12/25/7 14/26/7 15/27/7
f 18/28/8 16/29/8 17/30/8 19/31/8
f 14/32/9 23/33/9 22/34/9 15/35/9
f 15/36/10 19/37/10 17/38/10 13/39/10
f 19/40/11 22/41/11 23/42/11 18/43/11
f 12/44/12 16/45/12 18/46/12 14/47/12
f 17/48/13 21/49/13 13/50/13
f 20/51/14 16/52/14 12/53/14
o cube
v 0.44999999999999996 9.674999999999997 -1.721875
v 0.44999999999999996 9.674999999999997 -2.621875
v 0.44999999999999996 7.874999999999999 -1.721875
v 0.44999999999999996 7.874999999999999 -2.621875
v -0.44999999999999996 9.674999999999997 -2.621875
v -0.44999999999999996 9.674999999999997 -1.721875
v -0.44999999999999996 7.874999999999999 -2.621875
v -0.44999999999999996 7.874999999999999 -1.721875
vt 0 0.59375
vt 0.0234375 0.59375
vt 0.0234375 0.546875
vt 0 0.546875
vt 0.03125 0.59375
vt 0.0546875 0.59375
vt 0.0546875 0.546875
vt 0.03125 0.546875
vt 0.4296875 0.9296875
vt 0.453125 0.9296875
vt 0.453125 0.8828125
vt 0.4296875 0.8828125
vt 0.4296875 0.875
vt 0.453125 0.875
vt 0.453125 0.828125
vt 0.4296875 0.828125
vt 0.1875 0.546875
vt 0.1640625 0.546875
vt 0.1640625 0.5703125
vt 0.1875 0.5703125
vt 0.21875 0.5703125
vt 0.1953125 0.5703125
vt 0.1953125 0.546875
vt 0.21875 0.546875
vn 0 0 -1
vn 1 0 0
vn 0 0 1
vn -1 0 0
vn 0 1 0
vn 0 -1 0
usemtl m_edf4c41d-4f33-5fd7-927c-71d8294079b2
f 27/57/15 30/56/15 28/55/15 25/54/15
f 26/61/16 27/60/16 25/59/16 24/58/16
f 31/65/17 26/64/17 24/63/17 29/62/17
f 30/69/18 31/68/18 29/67/18 28/66/18
f 29/73/19 24/72/19 25/71/19 28/70/19
f 30/77/20 27/76/20 26/75/20 31/74/20
o roof
v -5.551115123125783e-17 8.348528137423857 0.3781249999999998
v -5.551115123125783e-17 8.348528137423857 -3.221875
v 0 7.5 0.3781249999999998
v 0 7.5 -3.221875
v -2.3334523779156062 6.01507575950825 0.3781249999999998
v -2.3334523779156062 6.01507575950825 -3.221875
v -1.9091883092036779 5.590811690796322 0.3781249999999998
v -1.9091883092036779 5.590811690796322 -3.221875
vt 0.4375 0.609375
vt 0.4375 0.625
vt 0.34375 0.625
vt 0.34375 0.609375
vt 0 0.703125
vt 0.0859375 0.703125
vt 0.0859375 0.796875
vt 0 0.796875
vt 0.234375 0.578125
vt 0.234375 0.671875
vt 0.1640625 0.671875
vt 0.1640625 0.578125
vt 0.4140625 0.5859375
vt 0.4296875 0.6015625
vt 0.34375 0.6015625
vt 0.34375 0.5859375
vt 0.328125 0.5859375
vt 0.2421875 0.5859375
vt 0.2578125 0.5703125
vt 0.328125 0.5703125
vn -0.7071067811865475 -0.7071067811865476 0
vn -0.7071067811865476 0.7071067811865475 0
vn 0.7071067811865476 -0.7071067811865475 0
vn 0 0 1
vn 0 0 -1
usemtl m_edf4c41d-4f33-5fd7-927c-71d8294079b2
f 38/78/21 36/79/21 37/80/21 39/81/21
f 36/82/22 32/83/22 33/84/22 37/85/22
f 35/86/23 34/87/23 38/88/23 39/89/23
f 34/90/24 32/91/24 36/92/24 38/93/24
f 37/94/25 33/95/25 35/96/25 39/97/25
o roof
v 2.3334523779156062 6.01507575950825 0.3781249999999998
v 2.3334523779156062 6.01507575950825 -3.221875
v 1.9091883092036779 5.590811690796322 0.3781249999999998
v 1.9091883092036779 5.590811690796322 -3.221875
v 5.551115123125783e-17 8.348528137423857 0.3781249999999998
v 5.551115123125783e-17 8.348528137423857 -3.221875
v 0 7.5 0.3781249999999998
v 0 7.5 -3.221875
vt 0.3359375 0.609375
vt 0.2421875 0.609375
vt 0.2421875 0.59375
vt 0.3359375 0.59375
vt 0.2578125 0.90625
vt 0.34375 0.90625
vt 0.34375 1
vt 0.2578125 1
vt 0.15625 0.5703125
vt 0.15625 0.6640625
vt 0.0859375 0.6640625
vt 0.0859375 0.5703125
vt 0.5078125 0.796875
vt 0.5078125 0.8125
vt 0.421875 0.8125
vt 0.4375 0.796875
vt 0.5078125 0.7890625
vt 0.421875 0.7890625
vt 0.421875 0.7734375
vt 0.4921875 0.7734375
vn 0.7071067811865475 -0.7071067811865476 0
vn 0.7071067811865476 0.7071067811865475 0
vn -0.7071067811865476 -0.7071067811865475 0
vn 0 0 1
vn 0 0 -1
usemtl m_edf4c41d-4f33-5fd7-927c-71d8294079b2
f 41/98/26 40/99/26 42/100/26 43/101/26
f 44/102/27 40/103/27 41/104/27 45/105/27
f 43/106/28 42/107/28 46/108/28 47/109/28
f 42/110/29 40/111/29 44/112/29 46/113/29
f 45/114/30 41/115/30 43/116/30 47/117/30
o roof
v -5.551115123125783e-17 5.648528137423857 3.378125
v -5.551115123125783e-17 5.648528137423857 0.078125
v 0 4.8 3.378125
v 0 4.8 0.078125
v -2.3334523779156062 3.31507575950825 3.378125
v -2.3334523779156062 3.31507575950825 0.078125
v -1.9091883092036779 2.8908116907963217 3.378125
v -1.9091883092036779 2.8908116907963217 0.078125
vt 0.5078125 0.75
vt 0.5078125 0.765625
vt 0.421875 0.765625
vt 0.421875 0.75
vt 0.2578125 0.8125
vt 0.34375 0.8125
vt 0.34375 0.8984375
vt 0.2578125 0.8984375
vt 0.421875 0.9140625
vt 0.421875 1
vt 0.3515625 1
vt 0.3515625 0.9140625
vt 0.4921875 0.7265625
vt 0.5078125 0.7421875
vt 0.421875 0.7421875
vt 0.421875 0.7265625
vt 0.421875 0.578125
vt 0.3359375 0.578125
vt 0.3515625 0.5625
vt 0.421875 0.5625
vn -0.7071067811865475 -0.7071067811865476 0
vn -0.7071067811865476 0.7071067811865475 0
vn 0.7071067811865476 -0.7071067811865475 0
vn 0 0 1
vn 0 0 -1
usemtl m_edf4c41d-4f33-5fd7-927c-71d8294079b2
f 54/118/31 52/119/31 53/120/31 55/121/31
f 52/122/32 48/123/32 49/124/32 53/125/32
f 51/126/33 50/127/33 54/128/33 55/129/33
f 50/130/34 48/131/34 52/132/34 54/133/34
f 53/134/35 49/135/35 51/136/35 55/137/35
o roof
v 2.3334523779156062 3.31507575950825 3.378125
v 2.3334523779156062 3.31507575950825 0.078125
v 1.9091883092036779 2.8908116907963217 3.378125
v 1.9091883092036779 2.8908116907963217 0.078125
v 5.551115123125783e-17 5.648528137423857 3.378125
v 5.551115123125783e-17 5.648528137423857 0.078125
v 0 4.8 3.378125
v 0 4.8 0.078125
vt 0.515625 1
vt 0.4296875 1
vt 0.4296875 0.984375
vt 0.515625 0.984375
vt 0.2578125 0.71875
vt 0.34375 0.71875
vt 0.34375 0.8046875
vt 0.2578125 0.8046875
vt 0.421875 0.8203125
vt 0.421875 0.90625
vt 0.3515625 0.90625
vt 0.3515625 0.8203125
vt 0.515625 0.9609375
vt 0.515625 0.9765625
vt 0.4296875 0.9765625
vt 0.4453125 0.9609375
vt 0.515625 0.953125
vt 0.4296875 0.953125
vt 0.4296875 0.9375
vt 0.5 0.9375
vn 0.7071067811865475 -0.7071067811865476 0
vn 0.7071067811865476 0.7071067811865475 0
vn -0.7071067811865476 -0.7071067811865475 0
vn 0 0 1
vn 0 0 -1
usemtl m_edf4c41d-4f33-5fd7-927c-71d8294079b2
f 57/138/36 56/139/36 58/140/36 59/141/36
f 60/142/37 56/143/37 57/144/37 61/145/37
f 59/146/38 58/147/38 62/148/38 63/149/38
f 58/150/39 56/151/39 60/152/39 62/153/39
f 61/154/40 57/155/40 59/156/40 63/157/40