# Made in Blockbench 4.11.2
mtllib Well Selector.mtl

o circle
v 0 0 0
v 0.4521642622275195 0 1.6875
v 1.2353357377724803 0 1.2353357377724805
v 1.6875 0 0.4521642622275195
v 1.6875 0 -0.45216426222751965
v 1.2353357377724805 0 -1.2353357377724803
v 0.45216426222751993 0 -1.6874999999999998
v -0.4521642622275188 0 -1.6875000000000002
v -1.2353357377724803 0 -1.2353357377724807
v -1.6875 0 -0.4521642622275193
v -1.6875000000000002 0 0.45216426222751877
v -1.2353357377724807 0 1.2353357377724798
v -0.4521642622275194 0 1.6875
vt 4.440892098500626e-16 -5.988115347597528
vt 3.4940576737987645 -5.051883872219627
vt 0 1
vt 6.75 -2.6173125
vt 6.75 1
vt 0 -0.8086562500000001
vt 6.98811401099496 -2.494058342100176
vt 6.051885029751334 1
vt 0 -2.494058342100173
vt 6.988115347597528 -2.494057673798764
vt 6.051883872219627 1
vt 0 -2.4940576737987645
vt 3.6173125 1
vt 0 1
vt 1.80865625 -5.75
vt 3.494058342100176 1
vt 0 0.06377101875637248
vt 3.4940583421001765 -5.98811401099496
vt 3.494057673798764 1
vt 0 0.06376852462209914
vt 3.4940576737987645 -5.988115347597528
vt 0 1
vt 0 -2.6173125
vt 6.75 -0.8086562500000001
vt 0 0.9999999999999962
vt 0.9362289812436284 -2.4940583421001787
vt 6.988114010994959 1
vt 0 0.9999999999999996
vt 0.9362314753779009 -2.4940576737987645
vt 6.988115347597528 1
vt 0 -5.75
vt 3.6173125 -5.75
vt 1.80865625 1
vt 0 -5.98811401099496
vt 3.494058342100176 -5.051885029751334
vt 3.1086244689504383e-15 1
vn 0 1 0
vn 0 1 0
vn 0 1 0
vn 0 1 0
vn 0 1 0
vn 0 1 0
vn 0 1 0
vn 0 1 0
vn 0 1 0
vn 0 1 0
vn 0 1 0
vn 0 1 0
usemtl none
f 3/1/1 4/2/1 1/3/1
f 4/4/2 5/5/2 1/6/2
f 5/7/3 6/8/3 1/9/3
f 6/10/4 7/11/4 1/12/4
f 7/13/5 8/14/5 1/15/5
f 8/16/6 9/17/6 1/18/6
f 9/19/7 10/20/7 1/21/7
f 10/22/8 11/23/8 1/24/8
f 11/25/9 12/26/9 1/27/9
f 12/28/10 13/29/10 1/30/10
f 13/31/11 2/32/11 1/33/11
f 2/34/12 3/35/12 1/36/12